<svg xmlns="http://www.w3.org/2000/svg" viewBox="0 0 860 500" font-family="Helvetica, Arial, sans-serif">
  <rect x="0" y="0" width="860" height="500" fill="#ffffff"/>

  <!-- title -->
  <text x="44" y="30" font-size="17" font-weight="bold" fill="#1a1a1a">crystal's menu — three axes, one gravity</text>

  <!-- plot axes (thin, Tufte-minimal) -->
  <line x1="120" y1="60" x2="120" y2="420" stroke="#bbbbbb" stroke-width="1.5"/>
  <line x1="120" y1="420" x2="560" y2="420" stroke="#bbbbbb" stroke-width="1.5"/>

  <!-- Y-AXIS endpoints, OUTSIDE the axis (left) -->
  <text x="115" y="74"  font-size="10.5" fill="#5a5a5a" font-style="italic" text-anchor="end">intelligent</text>
  <text x="115" y="416" font-size="10.5" fill="#5a5a5a" font-style="italic" text-anchor="end">deterministic</text>

  <!-- x-axis column labels (placement is self-evident from them) -->
  <text x="175" y="442" font-size="10.5" fill="#555555" text-anchor="middle">someone's cloud</text>
  <text x="340" y="442" font-size="10.5" fill="#555555" text-anchor="middle">public gateway</text>
  <text x="500" y="442" font-size="10.5" fill="#555555" text-anchor="middle">your machine</text>

  <!-- gravity: a tendency (neutral GRAY so it never reads as an openness color) -->
  <text x="158" y="336" font-size="11" font-weight="bold" fill="#555555">gravity</text>
  <line x1="158" y1="346" x2="228" y2="382" stroke="#555555" stroke-width="3"/>
  <polygon points="240,388 225.9,387 230.9,377.2" fill="#555555"/>
  <text x="150" y="408" font-size="9" fill="#5a5a5a">toward open, local, cheaper — quality held by the gate</text>

  <!-- points: (placement x) × (executor y); fill = openness (CVD-safe Okabe–Ito);
       italic sublabels REPEAT openness in text, so color is not the sole carrier -->
  <circle cx="175" cy="92"  r="8" fill="#D55E00"/>
  <text x="189" y="89"  font-size="12" fill="#1a1a1a">Opus</text>
  <text x="189" y="103" font-size="10" fill="#5a5a5a" font-style="italic">frontier · proprietary</text>

  <circle cx="175" cy="152" r="8" fill="#D55E00"/>
  <text x="189" y="149" font-size="12" fill="#1a1a1a">Haiku</text>
  <text x="189" y="163" font-size="10" fill="#5a5a5a" font-style="italic">cheaper · proprietary</text>

  <circle cx="340" cy="232" r="8" fill="#009E73"/>
  <text x="354" y="229" font-size="12" fill="#1a1a1a">OLMo · Apertus</text>
  <text x="354" y="243" font-size="10" fill="#5a5a5a" font-style="italic">public gateway · open-source</text>

  <circle cx="500" cy="304" r="8" fill="#E69F00"/>
  <text x="514" y="301" font-size="12" fill="#1a1a1a">local model</text>
  <text x="514" y="315" font-size="10" fill="#5a5a5a" font-style="italic">your hardware · open-weight</text>

  <circle cx="500" cy="392" r="8" fill="#0072B2"/>
  <text x="514" y="389" font-size="12" fill="#1a1a1a">code</text>
  <text x="514" y="403" font-size="10" fill="#5a5a5a" font-style="italic">this machine · exact, reproducible</text>

  <!-- openness legend (the color channel) -->
  <text x="610" y="80" font-size="11" font-weight="bold" fill="#333">openness (color) →</text>
  <rect x="610" y="92"  width="12" height="12" fill="#D55E00"/>
  <text x="628" y="102" font-size="11" fill="#333">proprietary · Opus, Haiku</text>
  <rect x="610" y="114" width="12" height="12" fill="#E69F00"/>
  <text x="628" y="124" font-size="11" fill="#333">open-weight · Qwen, Llama</text>
  <rect x="610" y="136" width="12" height="12" fill="#009E73"/>
  <text x="628" y="146" font-size="11" fill="#333">open-source · OLMo, Apertus</text>
  <rect x="610" y="158" width="12" height="12" fill="#0072B2"/>
  <text x="628" y="168" font-size="11" fill="#333">just code</text>
  <text x="610" y="192" font-size="9.5" fill="#5a5a5a">open-source = weights + data + recipe;</text>
  <text x="610" y="205" font-size="9.5" fill="#5a5a5a">open-weight = download-and-run only.</text>
</svg>
